<svg xmlns="http://www.w3.org/2000/svg" viewBox="0 0 640 360" role="img"><rect width="640" height="360" fill="#0d1015"/><ellipse cx="320" cy="190" rx="170" ry="110" fill="#e8a33d" opacity="0.25"/><ellipse cx="320" cy="190" rx="102.0" ry="66.0" fill="#e8a33d" opacity="0.25"/><rect x="252.5" y="41.75" width="135" height="256.5" rx="14" fill="#000"/><rect x="258.5" y="49.75" width="123" height="240.5" rx="9" fill="#0d1015"/><circle cx="274.5" cy="71.75" r="6" fill="#e8a33d"/><circle cx="297.25" cy="71.75" r="6" fill="#2a3140"/><circle cx="320.0" cy="71.75" r="6" fill="#2a3140"/><circle cx="342.75" cy="71.75" r="6" fill="#2a3140"/><circle cx="365.5" cy="71.75" r="6" fill="#2a3140"/><rect x="268.5" y="97.75" width="72.1" height="7" rx="3.5" fill="#2a3140"/><rect x="268.5" y="115.75" width="92.7" height="7" rx="3.5" fill="#2a3140"/><rect x="268.5" y="133.75" width="51.5" height="7" rx="3.5" fill="#2a3140"/><rect x="268.5" y="151.75" width="82.4" height="7" rx="3.5" fill="#2a3140"/><rect x="268.5" y="169.75" width="61.8" height="7" rx="3.5" fill="#2a3140"/><rect x="268.5" y="238.25" width="47.5" height="24" rx="8" fill="#e8a33d"/><rect x="324.0" y="238.25" width="47.5" height="24" rx="8" fill="#2a3140"/><g transform="translate(250 300) rotate(-8) scale(1.0)" fill="#05070a"><rect x="-30" y="-8" width="60" height="46" rx="16"/><rect x="-30" y="-52" width="12" height="52" rx="6"/><rect x="-15" y="-60" width="12" height="60" rx="6"/><rect x="0" y="-58" width="12" height="58" rx="6"/><rect x="15" y="-50" width="12" height="50" rx="6"/><rect x="-52" y="-4" width="30" height="13" rx="6" transform="rotate(-24 -52 0)"/></g><g transform="translate(400 300) rotate(8) scale(1.0)" fill="#05070a"><rect x="-30" y="-8" width="60" height="46" rx="16"/><rect x="-30" y="-52" width="12" height="52" rx="6"/><rect x="-15" y="-60" width="12" height="60" rx="6"/><rect x="0" y="-58" width="12" height="58" rx="6"/><rect x="15" y="-50" width="12" height="50" rx="6"/><rect x="-52" y="-4" width="30" height="13" rx="6" transform="rotate(-24 -52 0)"/></g><rect x="12" y="304" width="262.6" height="26" rx="13" fill="#000" opacity=".55"/><text x="26" y="322" font-family="Arial,sans-serif" font-size="14" fill="#ece7dc" text-anchor="start" font-weight="400">Eric: “A screen he has never seen.”</text><text x="12" y="348" font-family="Georgia,serif" font-size="13" fill="#8d887c">0:16</text></svg>