<svg xmlns="http://www.w3.org/2000/svg" viewBox="0 0 640 360" role="img"><rect width="640" height="360" fill="#0d1015"/><ellipse cx="320" cy="170" rx="200" ry="120" fill="#e8a33d" opacity="0.25"/><ellipse cx="320" cy="170" rx="120.0" ry="72.0" fill="#e8a33d" opacity="0.25"/><rect x="195.0" y="46.5" width="130" height="247.0" rx="14" fill="#000"/><rect x="201.0" y="54.5" width="118" height="231.0" rx="9" fill="#0d1015"/><circle cx="217.0" cy="76.5" r="6" fill="#e8a33d"/><circle cx="238.5" cy="76.5" r="6" fill="#e8a33d"/><circle cx="260.0" cy="76.5" r="6" fill="#e8a33d"/><circle cx="281.5" cy="76.5" r="6" fill="#e8a33d"/><circle cx="303.0" cy="76.5" r="6" fill="#e8a33d"/><rect x="211.0" y="102.5" width="68.6" height="7" rx="3.5" fill="#2a3140"/><rect x="211.0" y="120.5" width="88.2" height="7" rx="3.5" fill="#2a3140"/><rect x="211.0" y="138.5" width="49.0" height="7" rx="3.5" fill="#2a3140"/><rect x="211.0" y="156.5" width="78.4" height="7" rx="3.5" fill="#2a3140"/><rect x="211.0" y="174.5" width="58.8" height="7" rx="3.5" fill="#2a3140"/><rect x="211.0" y="233.5" width="45.0" height="24" rx="8" fill="#e8a33d"/><rect x="264.0" y="233.5" width="45.0" height="24" rx="8" fill="#2a3140"/><text x="620" y="40" font-family="Georgia,serif" font-size="22" fill="#e8a33d" text-anchor="end" font-weight="600">2:12</text><text x="470" y="150" font-family="Arial,sans-serif" font-size="16" fill="#ece7dc" text-anchor="start" font-weight="400">A full case:</text><text x="470" y="178" font-family="Georgia,serif" font-size="30" fill="#e8a33d" text-anchor="start" font-weight="600">50 to 56 s</text><text x="470" y="202" font-family="Arial,sans-serif" font-size="12" fill="#8d887c" text-anchor="start" font-weight="400" font-style="italic">(footage sped up)</text><rect x="12" y="304" width="254.79999999999998" height="26" rx="13" fill="#000" opacity=".55"/><text x="26" y="322" font-family="Arial,sans-serif" font-size="14" fill="#ece7dc" text-anchor="start" font-weight="400">Eric: “Nury never sends. He does.”</text><text x="12" y="348" font-family="Georgia,serif" font-size="13" fill="#8d887c">1:06</text></svg>